<?xml version="1.0" standalone="no"?>
<!DOCTYPE svg PUBLIC "-//W3C//DTD SVG 20010904//EN"
        "http://www.w3.org/TR/2001/REC-SVG-20010904/DTD/svg10.dtd">
<svg version="1.0" xmlns="http://www.w3.org/2000/svg"
     width="1000pt" height="200" viewBox="0 0 2000.000000 292.000000"
     preserveAspectRatio="xMidYMid meet">
    <defs>
        <linearGradient id="gradient" x1="0%" y1="0%" x2="100%" y2="0%">
            <stop offset="0%" style="stop-color:#e2e8f0;stop-opacity:1">
                <animate attributeName="stop-color" values="#e2e8f0;#0f172a;#e2e8f0" dur="5s" repeatCount="indefinite"/>
            </stop>
            <stop offset="100%" style="stop-color:black;stop-opacity:1">
                <animate attributeName="stop-color" values="#0f172a;#e2e8f0;#0f172a" dur="5s" repeatCount="indefinite"/>
            </stop>
        </linearGradient>
    </defs>
    <g transform="translate(0.000000,292.000000) scale(0.100000,-0.100000)"
       fill="url(#gradient)" stroke="none">
        <path d="M1285 2896 c-334 -55 -624 -207 -844 -442 -468 -501 -526 -1237 -143
-1809 392 -585 1168 -799 1811 -499 545 254 888 847 831 1434 -62 651 -518
1165 -1152 1301 -120 26 -88 34 -503 15z m155 -428 l0 -331 -109 6 c-97 6
-321 34 -329 41 -5 6 71 212 100 270 96 191 207 305 336 345 1 1 2 -148 2
-331z m212 286 c76 -48 164 -157 228 -284 37 -74 95 -220 104 -266 6 -29 4
-32 -22 -37 -41 -8 -223 -25 -324 -30 l-88 -5 0 334 0 333 33 -11 c17 -6 49
-22 69 -34z m-505 -33 c-79 -87 -172 -263 -224 -423 -15 -49 -33 -88 -40 -88
-22 0 -246 77 -315 109 -38 16 -68 34 -68 40 0 5 34 41 76 80 85 79 222 175
327 227 70 36 268 106 276 99 2 -3 -12 -22 -32 -44z m833 -8 c87 -32 214 -101
296 -159 81 -58 246 -213 239 -224 -9 -14 -206 -87 -295 -110 -47 -11 -92 -23
-101 -26 -13 -4 -22 14 -44 83 -51 165 -144 340 -257 480 -12 14 57 -4 162
-44z m-1474 -482 c62 -31 228 -91 351 -127 9 -2 9 -12 2 -36 -18 -62 -49 -308
-56 -433 l-6 -125 -38 0 c-32 0 -41 5 -53 29 -64 123 -222 132 -306 18 l-35
-47 -105 2 -105 3 3 60 c8 149 59 330 138 488 38 75 119 207 127 207 2 0 39
-18 83 -39z m2125 -53 c95 -146 167 -340 193 -520 9 -58 16 -115 16 -127 l0
-21 -322 2 -323 3 -2 50 c-8 160 -30 352 -59 491 -6 31 -5 32 47 44 79 18 286
87 344 115 28 13 53 24 58 24 4 1 26 -27 48 -61z m-1501 -123 c58 -8 151 -17
208 -21 l102 -7 0 -46 c0 -41 -3 -49 -31 -65 -44 -26 -69 -72 -69 -129 0 -27
5 -58 11 -70 17 -32 61 -77 76 -77 9 0 13 -18 13 -65 l0 -65 -264 0 c-146 0
-267 3 -269 8 -12 24 24 371 54 511 10 49 12 52 37 47 15 -4 74 -13 132 -21z
m894 -2 c26 -83 75 -511 61 -534 -4 -5 -115 -9 -271 -9 l-264 0 0 56 c0 54 2
58 44 95 52 46 72 103 55 162 -11 42 -51 93 -79 102 -16 5 -20 15 -20 54 l0
48 143 7 c112 6 245 20 319 35 4 0 9 -7 12 -16z m-494 -233 c11 -11 20 -28 20
-37 0 -23 -30 -53 -53 -53 -26 0 -57 28 -57 52 0 22 34 58 55 58 8 0 24 -9 35
-20z m-933 -312 c29 -27 29 -65 1 -95 -45 -48 -121 -18 -121 47 0 64 72 93
120 48z m-197 -145 c84 -114 242 -105 306 18 12 25 21 29 54 29 l40 0 0 -64
c0 -116 39 -424 66 -523 5 -17 2 -23 -9 -23 -33 0 -258 -70 -345 -108 l-93
-40 -39 58 c-82 121 -157 291 -190 434 -24 101 -43 243 -35 256 3 6 52 10 108
10 l102 0 35 -47z m1040 -222 l0 -268 -46 -7 c-26 -3 -69 -6 -97 -6 -27 0
-110 -7 -184 -16 -74 -9 -136 -14 -139 -12 -20 20 -81 542 -67 571 2 4 123 7
269 7 l264 0 0 -269z m642 174 c-4 -118 -18 -234 -44 -375 -11 -63 -22 -116
-23 -118 -1 -1 -34 3 -73 9 -68 11 -71 13 -88 51 -25 55 -76 88 -136 88 -72 0
-103 -17 -153 -85 -13 -18 -14 11 -15 253 l0 272 268 -2 267 -3 -3 -90z m758
74 c0 -12 -7 -69 -16 -127 -17 -118 -59 -257 -109 -367 -34 -74 -125 -225
-149 -244 -9 -8 -29 -3 -77 20 -65 32 -317 119 -343 119 -24 0 -25 12 -10 85
24 114 43 266 50 392 3 65 7 124 10 131 2 9 76 12 324 12 319 0 320 0 320 -21z
m-1099 -529 c13 -7 19 -21 19 -45 0 -50 -50 -73 -84 -39 -31 30 -10 94 30 94
9 0 24 -5 35 -10z m-301 -419 l0 -320 -32 11 c-104 35 -219 161 -306 333 -38
77 -94 235 -88 251 3 7 49 16 118 23 62 6 127 13 143 15 17 1 60 4 98 5 l67 1
0 -319z m150 267 c0 -3 16 -16 36 -28 66 -42 155 -26 209 35 19 22 23 22 83
13 39 -7 62 -16 62 -24 0 -22 -57 -169 -96 -246 -88 -174 -194 -289 -301 -326
l-33 -11 0 322 c0 321 0 322 20 297 11 -14 20 -28 20 -32z m-666 -90 c54 -161
146 -334 223 -419 20 -22 34 -41 32 -43 -7 -8 -172 50 -253 88 -111 51 -256
150 -354 242 l-84 77 28 15 c61 32 324 118 370 121 6 1 23 -36 38 -81z m1340
27 c121 -40 216 -81 216 -94 0 -14 -134 -135 -207 -187 -116 -83 -265 -154
-412 -198 -61 -18 -64 -28 23 85 57 75 131 220 177 350 l32 91 36 -7 c19 -4
80 -22 135 -40z"/>
        <path d="M11866 2495 c-317 -60 -538 -280 -633 -630 -27 -99 -27 -104 -27
-410 0 -304 0 -312 26 -408 108 -394 365 -614 743 -633 457 -24 780 224 839
644 l6 42 -177 -2 -177 -3 -13 -65 c-19 -98 -78 -207 -135 -250 -75 -56 -128
-72 -259 -77 -135 -6 -203 9 -284 62 -158 105 -225 312 -225 695 0 250 23 389
86 517 86 176 225 252 441 240 115 -6 169 -23 238 -75 61 -46 118 -152 138
-257 l14 -70 176 -3 177 -2 -6 42 c-42 272 -175 471 -385 571 -52 25 -123 53
-159 62 -93 23 -305 28 -404 10z"/>
        <path d="M15270 2495 c-165 -28 -300 -95 -401 -197 -193 -196 -194 -508 -2
-702 112 -113 229 -174 526 -275 114 -39 227 -81 250 -92 131 -67 177 -128
185 -243 11 -177 -105 -281 -329 -293 -271 -16 -440 88 -478 292 -6 32 -11 60
-11 62 0 2 -79 3 -176 3 l-177 0 7 -64 c27 -261 237 -471 547 -546 170 -41
402 -36 559 12 143 44 274 135 339 236 111 174 101 431 -24 601 -94 128 -243
213 -558 320 -232 79 -308 114 -369 169 -54 49 -78 102 -78 178 0 146 100 239
288 266 154 21 300 -19 380 -106 43 -47 82 -137 82 -191 l0 -35 175 0 175 0 0
43 c0 163 -130 369 -293 466 -162 96 -401 133 -617 96z"/>
        <path d="M4210 2458 c-13 -31 -760 -2010 -760 -2014 0 -2 82 -4 183 -4 l182 0
81 232 81 233 399 3 399 2 81 -232 82 -233 186 -3 186 -2 -19 47 c-10 27 -184
486 -386 1021 l-368 972 -159 0 c-155 0 -159 -1 -168 -22z m319 -840 c77 -224
141 -409 141 -412 0 -4 -133 -6 -296 -6 -163 0 -294 4 -292 8 2 5 68 194 147
421 79 226 147 408 151 404 4 -4 71 -191 149 -415z"/>
        <path d="M5540 1460 l0 -1020 640 0 640 0 0 140 0 140 -460 0 -460 0 0 880 0
880 -180 0 -180 0 0 -1020z"/>
        <path d="M7100 1460 l0 -1020 665 0 665 0 0 140 0 140 -490 0 -490 0 0 315 0
315 420 0 420 0 0 140 0 140 -420 0 -420 0 2 283 3 282 483 3 482 2 0 140 0
140 -660 0 -660 0 0 -1020z"/>
        <path d="M8698 2303 c60 -98 197 -323 305 -500 108 -177 198 -325 199 -330 2
-4 -136 -235 -307 -512 -170 -278 -311 -508 -313 -513 -2 -4 88 -8 201 -8
l204 0 218 370 c119 204 220 370 224 370 3 0 103 -167 221 -370 l215 -370 207
0 208 0 -64 103 c-73 118 -557 908 -563 919 -2 4 134 233 302 508 168 276 305
503 305 506 0 2 -91 4 -202 4 l-203 0 -208 -360 c-115 -198 -212 -362 -217
-365 -4 -2 -103 160 -219 360 l-212 365 -205 0 -204 0 108 -177z"/>
        <path d="M13140 1460 l0 -1020 665 0 665 0 0 140 0 140 -490 0 -490 0 0 315 0
315 420 0 420 0 0 140 0 140 -420 0 -420 0 0 285 0 285 485 0 485 0 0 140 0
140 -660 0 -660 0 0 -1020z"/>
        <path d="M17087 2473 c-3 -6 -600 -1582 -764 -2021 -4 -9 36 -12 179 -12 l183
0 81 232 81 233 399 3 399 2 82 -232 81 -233 186 -3 185 -2 -23 62 c-13 35
-182 482 -376 993 -194 512 -357 942 -362 958 l-10 27 -158 0 c-88 0 -161 -3
-163 -7z m311 -854 c78 -223 142 -409 142 -412 0 -4 -133 -7 -296 -7 -163 0
-294 4 -292 8 2 5 68 194 147 421 79 226 147 408 151 404 4 -4 71 -191 148
-414z"/>
        <path d="M18410 1461 l0 -1021 180 0 180 0 0 395 0 395 198 -2 197 -3 204
-393 204 -392 188 0 c132 0 189 3 189 11 0 6 -101 199 -225 429 -124 230 -225
420 -225 423 0 3 28 21 62 39 84 44 197 153 236 225 52 99 66 164 66 303 0
135 -13 199 -61 295 -70 139 -205 237 -395 287 -78 20 -111 22 -540 25 l-458
4 0 -1020z m894 710 c132 -43 207 -154 208 -310 0 -42 -5 -94 -11 -116 -16
-61 -64 -129 -115 -164 -87 -60 -108 -64 -373 -69 l-243 -4 0 347 0 347 233
-4 c206 -4 240 -7 301 -27z"/>
    </g>
</svg>
