<?xml version="1.0" standalone="no"?>
<!DOCTYPE svg PUBLIC "-//W3C//DTD SVG 20010904//EN"
 "http://www.w3.org/TR/2001/REC-SVG-20010904/DTD/svg10.dtd">
<svg version="1.0" xmlns="http://www.w3.org/2000/svg"
 width="577.000000pt" height="433.000000pt" viewBox="0 0 577.000000 433.000000"
 preserveAspectRatio="xMidYMid meet">

<defs>
    <linearGradient id="gradient" x1="0%" y1="0%" x2="100%" y2="0%">
        <stop offset="0%" style="stop-color:#64748b;stop-opacity:1">
            <animate attributeName="stop-color" values="#64748b;#0f172a;#64748b" dur="5s" repeatCount="indefinite" />
        </stop>
        <stop offset="100%" style="stop-color:black;stop-opacity:1">
            <animate attributeName="stop-color" values="#0f172a;#64748b;#0f172a" dur="5s" repeatCount="indefinite" />
        </stop>
    </linearGradient>
</defs>
<g transform="translate(0.000000,433.000000) scale(0.100000,-0.100000)"
fill="url(#gradient)" stroke="none">
<path d="M2550 2485 l0 -525 60 0 60 0 0 525 0 525 -60 0 -60 0 0 -525z"/>
<path d="M1885 2898 c-4 -13 -27 -77 -52 -143 -24 -66 -53 -142 -63 -170 -10
-27 -39 -104 -63 -170 -25 -66 -68 -183 -97 -260 -28 -77 -55 -150 -61 -163
-5 -13 -9 -25 -9 -27 0 -3 26 -5 58 -5 l58 0 37 108 c21 59 42 117 47 130 9
22 11 22 214 22 l204 0 10 -27 c11 -28 70 -197 77 -220 3 -9 26 -13 70 -13 78
0 78 -22 0 185 -30 77 -77 203 -105 280 -28 77 -62 167 -75 200 -12 33 -42
113 -65 178 l-43 117 -68 0 c-62 0 -68 -2 -74 -22z m149 -311 c44 -133 81
-248 84 -254 3 -10 -34 -13 -166 -13 l-170 0 79 233 c43 127 79 242 79 255 0
12 3 22 8 22 4 0 43 -109 86 -243z"/>
<path d="M3081 2638 c-156 -60 -254 -267 -209 -446 14 -57 63 -138 106 -174
99 -83 290 -90 445 -18 22 11 27 20 27 48 0 31 -2 34 -22 28 -115 -33 -237
-31 -313 5 -68 32 -125 116 -125 185 l0 24 235 0 234 0 7 35 c9 48 -4 138 -26
191 -25 57 -86 117 -136 132 -63 18 -161 14 -223 -10z m180 -94 c43 -21 79
-79 86 -134 l6 -50 -182 0 -181 0 1 23 c1 28 19 77 39 102 58 76 151 100 231
59z"/>
<path d="M3606 2638 c14 -22 118 -170 174 -246 38 -52 51 -78 44 -87 -11 -14
-98 -135 -184 -253 -33 -46 -60 -85 -60 -88 0 -2 27 -4 59 -4 l60 0 64 93 c35
50 77 116 93 144 16 29 34 53 39 53 6 0 23 -24 39 -53 46 -82 146 -228 160
-233 7 -3 40 -4 74 -2 l61 3 -130 175 c-71 96 -129 178 -129 182 0 5 33 52 73
105 39 52 93 124 119 159 l48 64 -64 0 -64 0 -59 -87 c-33 -49 -72 -110 -87
-136 -31 -54 -34 -53 -68 13 -13 25 -47 82 -77 128 l-53 82 -70 0 c-53 0 -67
-3 -62 -12z"/>
<path d="M1910 1540 c-11 -11 -20 -29 -20 -39 0 -11 -6 -22 -12 -25 -10 -5
-10 -7 0 -12 8 -4 12 -30 12 -80 0 -59 3 -74 15 -74 12 0 15 15 15 75 0 68 2
75 20 75 11 0 20 5 20 10 0 6 -9 10 -20 10 -30 0 -26 38 5 50 14 5 25 14 25
20 0 17 -39 11 -60 -10z"/>
<path d="M3580 1430 c0 -100 3 -120 15 -120 13 0 15 20 15 120 0 100 -2 120
-15 120 -12 0 -15 -20 -15 -120z"/>
<path d="M1516 1518 c-32 -45 -15 -72 67 -107 34 -15 47 -26 47 -40 0 -44 -78
-52 -100 -11 -6 11 -17 20 -25 20 -38 0 6 -57 50 -66 70 -13 114 19 100 73 -4
18 -21 31 -61 49 -30 13 -57 31 -60 39 -16 41 65 64 86 25 10 -19 40 -28 40
-12 0 5 -9 18 -20 30 -29 31 -103 31 -124 0z"/>
<path d="M2880 1425 l0 -115 35 0 c46 0 101 23 114 48 6 12 11 44 11 72 0 44
-5 56 -29 81 -25 24 -37 29 -80 29 l-51 0 0 -115z m107 73 c18 -17 23 -32 23
-74 0 -59 -21 -84 -72 -84 l-28 0 0 90 0 90 27 0 c15 0 37 -10 50 -22z"/>
<path d="M2000 1500 c0 -11 -7 -20 -15 -20 -8 0 -15 -4 -15 -10 0 -5 7 -10 15
-10 12 0 15 -14 15 -63 0 -65 11 -87 42 -87 22 0 24 16 3 24 -11 4 -15 21 -15
66 0 47 3 60 15 60 8 0 15 5 15 10 0 6 -7 10 -15 10 -8 0 -15 9 -15 20 0 11
-7 20 -15 20 -8 0 -15 -9 -15 -20z"/>
<path d="M3453 1479 c-48 -18 -65 -76 -38 -128 22 -43 72 -55 111 -27 24 18
10 34 -16 18 -11 -7 -26 -12 -34 -12 -14 0 -46 36 -46 52 0 5 27 8 60 8 65 0
67 3 46 54 -15 35 -46 49 -83 35z m57 -38 c15 -30 14 -31 -35 -31 -25 0 -45 3
-45 6 0 20 24 44 45 44 14 0 29 -8 35 -19z"/>
<path d="M3710 1482 c-72 -22 -76 -150 -5 -168 63 -16 115 40 100 106 -10 44
-56 74 -95 62z m59 -53 c19 -34 7 -77 -24 -91 -48 -22 -84 47 -54 103 15 28
59 21 78 -12z"/>
<path d="M1706 1455 c-24 -37 -21 -97 7 -123 70 -65 159 27 112 115 -16 29
-23 33 -60 33 -34 0 -46 -5 -59 -25z m94 -14 c27 -52 -5 -120 -49 -106 -33 10
-44 81 -19 113 16 19 56 14 68 -7z"/>
<path d="M2085 1468 c2 -7 13 -46 25 -86 13 -45 26 -72 33 -69 7 2 21 33 31
68 l19 64 21 -67 c11 -38 25 -68 31 -68 6 0 23 38 37 86 22 72 23 85 10 82
-10 -2 -21 -25 -32 -66 l-15 -63 -19 66 c-10 36 -24 65 -31 65 -7 0 -21 -28
-32 -62 l-20 -63 -18 63 c-10 36 -23 62 -31 62 -7 0 -12 -6 -9 -12z"/>
<path d="M2352 1468 c-14 -14 -16 -38 -3 -38 5 0 14 7 21 15 16 20 56 19 64
-1 11 -29 6 -34 -32 -34 -52 0 -80 -29 -64 -65 15 -33 38 -41 73 -28 16 7 29
7 29 2 0 -5 7 -9 15 -9 12 0 15 13 15 59 0 33 -4 71 -10 85 -8 22 -16 26 -53
26 -24 0 -48 -5 -55 -12z m88 -86 c0 -29 -37 -58 -58 -45 -26 16 -21 46 8 54
41 12 50 10 50 -9z"/>
<path d="M2510 1394 c0 -67 3 -84 15 -84 11 0 15 16 17 68 3 58 6 68 26 77 33
15 27 24 -18 23 l-40 0 0 -84z"/>
<path d="M2642 1467 c-25 -29 -33 -69 -21 -104 18 -54 76 -71 120 -33 26 21
11 27 -23 9 -26 -14 -63 1 -71 30 -5 20 -1 21 54 21 55 0 59 2 59 23 0 41 -27
67 -69 67 -21 0 -43 -6 -49 -13z m76 -19 c24 -24 13 -38 -28 -38 -33 0 -40 3
-40 19 0 29 45 42 68 19z"/>
<path d="M3096 1455 c-23 -35 -21 -96 4 -123 25 -27 81 -29 106 -5 20 20 4 29
-25 14 -27 -15 -37 -14 -55 5 -31 31 -20 44 39 44 51 0 55 2 55 23 0 41 -27
67 -69 67 -30 0 -42 -6 -55 -25z m78 -1 c9 -3 16 -15 16 -25 0 -15 -7 -19 -40
-19 -41 0 -52 14 -28 38 13 13 28 15 52 6z"/>
<path d="M3240 1477 c0 -11 54 -154 61 -161 13 -14 17 -6 50 80 34 93 33 84
15 84 -9 0 -22 -22 -32 -55 -10 -30 -21 -55 -25 -55 -4 0 -15 25 -24 55 -10
31 -24 55 -31 55 -8 0 -14 -1 -14 -3z"/>
<path d="M3840 1364 c0 -95 3 -114 15 -114 10 0 15 10 15 34 0 34 1 34 38 29
29 -4 41 0 55 15 22 24 26 96 8 130 -10 19 -19 22 -71 21 l-60 -2 0 -113z
m104 80 c32 -31 8 -114 -33 -114 -28 0 -41 21 -41 65 0 61 38 86 74 49z"/>
<path d="M4036 1458 c-23 -33 -21 -99 4 -126 24 -26 81 -30 100 -7 18 21 6 29
-20 15 -28 -15 -65 0 -73 29 -5 20 -1 21 55 21 l61 0 -7 32 c-9 45 -24 58 -67
58 -28 0 -42 -6 -53 -22z m88 -20 c14 -24 5 -30 -43 -26 -41 3 -41 3 -25 26
18 26 51 26 68 0z"/>
<path d="M4190 1395 c0 -69 3 -85 15 -85 12 0 15 14 15 66 0 64 1 66 30 77 17
6 30 15 30 19 0 13 -48 9 -53 -4 -4 -10 -6 -10 -6 0 -1 6 -8 12 -16 12 -12 0
-15 -16 -15 -85z"/>
</g>
</svg>
