<?xml version="1.0" standalone="no"?>
<!DOCTYPE svg PUBLIC "-//W3C//DTD SVG 20010904//EN"
 "http://www.w3.org/TR/2001/REC-SVG-20010904/DTD/svg10.dtd">
<svg version="1.0" xmlns="http://www.w3.org/2000/svg"
 width="2000.000000pt" height="722.000000pt" viewBox="0 0 2000.000000 722.000000"
 preserveAspectRatio="xMidYMid meet">
<defs>
    <linearGradient id="gradient" x1="0%" y1="0%" x2="100%" y2="0%">
        <stop offset="0%" style="stop-color:#cbd5e1;stop-opacity:1">
            <animate attributeName="stop-color" values="#cbd5e1;#334155;#cbd5e1" dur="5s" repeatCount="indefinite" />
        </stop>
        <stop offset="100%" style="stop-color:black;stop-opacity:1">
            <animate attributeName="stop-color" values="#334155;#cbd5e1;#334155" dur="5s" repeatCount="indefinite" />
        </stop>
    </linearGradient>
</defs>
<g transform="translate(0.000000,722.000000) scale(0.100000,-0.100000)"
fill="url(#gradient)" stroke="none">
<path d="M7861 7199 c-44 -18 -82 -51 -104 -92 l-22 -42 0 -3455 0 -3455 23
-42 c76 -144 283 -132 347 19 13 34 15 395 15 3478 0 3083 -2 3444 -15 3478
-40 95 -154 147 -244 111z"/>
<path d="M13130 4495 l0 -2115 225 0 225 0 0 2115 0 2115 -225 0 -225 0 0
-2115z"/>
<path d="M10689 6343 c-5 -16 -355 -903 -776 -1973 -421 -1070 -768 -1955
-771 -1967 l-4 -23 229 0 230 0 245 633 244 632 796 3 c631 2 797 0 801 -10 3
-7 111 -285 241 -617 130 -332 241 -612 247 -622 9 -18 25 -19 245 -19 220 0
235 1 230 18 -3 9 -354 906 -779 1992 l-774 1975 -197 3 -196 2 -11 -27z m219
-540 c40 -152 132 -413 365 -1035 143 -384 258 -700 255 -703 -3 -3 -291 -4
-641 -3 l-635 3 239 630 c242 636 315 844 366 1045 15 60 30 110 33 110 3 0
11 -21 18 -47z"/>
<path d="M300 6094 c-106 -29 -200 -109 -249 -213 l-26 -56 -3 -1822 -2 -1822
22 -58 c15 -42 38 -75 82 -119 107 -107 22 -99 1073 -102 l913 -3 0 -28 c0
-46 -35 -146 -70 -201 -37 -58 -113 -129 -178 -167 -58 -34 -189 -78 -278 -92
-86 -15 -131 -40 -150 -86 -33 -79 -5 -162 66 -197 33 -17 112 -18 1220 -18
1108 0 1187 1 1220 18 103 51 108 212 8 257 -18 8 -84 26 -147 40 -148 32
-245 80 -328 161 -72 71 -130 179 -140 262 l-6 52 432 0 431 0 0 425 0 425
-1785 0 -1785 0 0 1370 0 1370 2100 0 2100 0 0 -116 0 -117 61 7 c34 3 172 6
305 6 l244 0 0 218 c0 119 -5 246 -10 281 -19 137 -116 264 -238 313 l-57 23
-2385 2 c-2074 2 -2392 0 -2440 -13z m2496 -3633 c23 -10 54 -36 70 -56 57
-75 40 -211 -33 -263 -97 -69 -221 -45 -280 55 -22 37 -25 53 -21 107 3 51 10
71 32 101 53 70 150 93 232 56z"/>
<path d="M15530 5410 c-295 -31 -534 -142 -730 -340 -265 -266 -404 -634 -426
-1120 -24 -539 131 -993 434 -1270 262 -239 580 -350 1007 -350 325 0 564 43
843 152 l102 40 0 199 c0 109 -2 199 -5 199 -2 0 -39 -14 -80 -30 -389 -155
-861 -207 -1170 -129 -388 98 -625 431 -660 928 l-8 101 1027 0 1026 0 0 189
c0 367 -40 581 -152 805 -59 120 -124 211 -218 307 -204 207 -452 309 -785
323 -66 2 -158 1 -205 -4z m362 -399 c298 -77 473 -323 508 -715 5 -61 10
-117 10 -123 0 -10 -163 -13 -780 -13 -653 0 -780 2 -780 14 0 7 7 53 15 102
75 433 310 697 670 754 88 13 268 4 357 -19z"/>
<path d="M17350 5354 c0 -3 228 -325 506 -716 278 -390 508 -716 510 -723 3
-7 -238 -353 -535 -768 -298 -415 -541 -758 -541 -761 0 -3 112 -6 248 -6 224
0 250 2 264 18 9 9 201 281 426 605 l411 587 418 -605 418 -604 253 -1 c138 0
252 2 252 5 0 2 -243 345 -541 761 -297 416 -538 762 -535 770 3 7 232 332
511 723 278 390 505 712 505 715 0 4 -113 5 -252 4 l-252 -3 -383 -560 c-211
-308 -388 -561 -392 -563 -5 -1 -183 252 -397 563 l-388 565 -253 0 c-139 0
-253 -3 -253 -6z"/>
<path d="M4790 4944 c-114 -31 -207 -109 -262 -222 l-33 -67 -3 -1599 c-3
-1781 -7 -1651 67 -1762 45 -68 117 -126 193 -157 53 -22 59 -22 827 -25 844
-3 841 -3 940 55 63 37 127 108 164 183 l32 65 3 1599 c3 1784 8 1650 -68
1764 -46 68 -114 123 -193 156 -51 21 -60 21 -832 23 -663 2 -788 0 -835 -13z
m1520 -1914 l0 -1200 -700 0 -700 0 0 1200 0 1200 700 0 700 0 0 -1200z m-642
-1395 c75 -32 112 -86 112 -166 0 -63 -27 -115 -77 -149 -29 -20 -49 -25 -98
-25 -49 0 -69 5 -98 25 -56 38 -80 90 -75 160 5 71 40 123 102 151 50 23 85
24 134 4z"/>
<path d="M10044 1301 c-41 -25 -45 -33 -53 -94 -6 -47 -8 -51 -38 -59 -45 -12
-44 -38 2 -38 l35 0 0 -165 0 -165 25 0 25 0 0 165 0 165 50 0 c47 0 50 2 50
25 0 23 -3 25 -50 25 -55 0 -56 2 -39 62 11 41 37 55 85 45 18 -3 28 1 35 15
14 26 11 28 -47 34 -38 4 -56 1 -80 -15z"/>
<path d="M12523 1304 c-3 -8 -3 -55 -1 -104 l5 -88 -35 24 c-41 28 -117 32
-162 9 -97 -50 -109 -264 -19 -339 55 -46 134 -46 189 1 l30 25 0 -26 c0 -21
5 -26 25 -26 l25 0 0 270 0 270 -25 0 c-14 0 -28 -7 -32 -16z m-31 -221 c21
-22 23 -34 23 -119 0 -111 -13 -133 -87 -141 -40 -5 -49 -2 -79 25 -31 28 -34
34 -37 103 -2 57 1 82 15 109 31 60 119 72 165 23z"/>
<path d="M13850 1051 l0 -271 30 0 30 0 -2 268 -3 267 -27 3 -28 3 0 -270z"/>
<path d="M9214 1271 c-54 -25 -74 -55 -74 -112 0 -67 33 -102 139 -151 92 -42
110 -59 111 -101 1 -77 -121 -108 -243 -61 -14 5 -17 0 -17 -24 0 -28 3 -31
50 -41 70 -15 127 -13 179 7 59 23 86 61 86 121 0 70 -23 97 -123 143 -110 50
-122 61 -122 109 0 30 6 42 24 54 36 24 85 28 143 12 45 -12 53 -12 58 0 11
31 3 41 -39 52 -65 16 -125 13 -172 -8z"/>
<path d="M10230 1214 c-6 -14 -10 -29 -10 -34 0 -5 -13 -16 -30 -25 -37 -19
-40 -45 -6 -45 l24 0 4 -134 c3 -118 6 -138 24 -163 36 -49 144 -58 144 -13 0
17 -7 20 -39 20 -62 0 -71 21 -71 167 l0 123 55 0 c52 0 55 1 55 25 0 24 -3
25 -55 25 l-55 0 0 40 c0 47 -24 56 -40 14z"/>
<path d="M9614 1146 c-82 -36 -119 -189 -69 -286 52 -100 200 -119 274 -35 82
94 57 278 -44 321 -43 18 -120 18 -161 0z m145 -52 c61 -43 68 -197 12 -248
-26 -24 -84 -31 -122 -16 -78 33 -93 204 -22 260 32 25 99 27 132 4z"/>
<path d="M10410 1148 c1 -7 22 -92 49 -188 l48 -175 34 -3 34 -3 37 113 c20
62 42 133 48 158 l12 45 34 -115 c57 -196 56 -195 96 -198 l35 -3 48 178 c26
98 50 184 53 191 3 8 -6 12 -26 12 -29 0 -31 -3 -51 -77 -11 -43 -28 -111 -38
-150 -9 -40 -19 -73 -22 -73 -3 0 -23 58 -44 128 -54 177 -52 172 -85 172 -28
0 -30 -3 -70 -132 -23 -73 -44 -146 -48 -162 -6 -24 -14 -3 -44 116 -20 80
-40 152 -43 161 -7 20 -57 23 -57 5z"/>
<path d="M11060 1145 c-32 -12 -40 -29 -22 -47 4 -3 29 -1 57 6 76 20 116 4
131 -51 12 -44 -1 -53 -68 -53 -74 0 -138 -26 -164 -64 -20 -32 -14 -98 12
-127 42 -47 139 -49 193 -3 l30 25 7 -25 c4 -17 13 -26 25 -26 18 0 19 10 19
150 0 163 -7 193 -51 216 -34 17 -122 17 -169 -1z m170 -205 c0 -33 -26 -86
-51 -104 -51 -36 -139 -8 -139 43 0 55 42 80 133 81 51 0 57 -2 57 -20z"/>
<path d="M11400 970 l0 -190 30 0 30 0 0 116 c0 87 4 125 16 150 19 39 59 64
102 64 27 0 42 14 42 41 0 5 -20 9 -45 9 -38 0 -51 -6 -85 -36 l-40 -36 0 36
c0 32 -3 36 -25 36 l-25 0 0 -190z"/>
<path d="M11749 1137 c-97 -64 -108 -241 -20 -320 48 -43 108 -55 187 -38 48
11 54 15 54 38 0 22 -3 24 -22 19 -101 -29 -173 -12 -201 47 -9 19 -17 44 -17
56 0 20 5 21 131 21 l132 0 -6 49 c-12 102 -62 151 -153 151 -36 0 -61 -7 -85
-23z m149 -51 c12 -11 22 -34 24 -51 l3 -30 -99 -3 -98 -3 6 28 c12 45 34 72
69 81 43 11 71 5 95 -22z"/>
<path d="M12761 1138 c-42 -28 -70 -80 -77 -144 -17 -141 75 -236 212 -220 69
8 94 21 94 48 0 17 -4 19 -27 14 -67 -15 -129 -17 -152 -4 -32 17 -59 56 -67
96 l-6 32 131 0 131 0 0 40 c0 51 -20 98 -54 130 -40 36 -138 41 -185 8z m146
-38 c7 0 33 -62 33 -80 0 -19 -6 -20 -93 -20 -52 0 -96 3 -100 6 -10 10 22 77
41 89 30 18 56 22 87 13 16 -4 31 -8 32 -8z"/>
<path d="M13040 1156 c0 -2 23 -64 51 -138 28 -73 60 -157 71 -186 19 -51 21
-53 55 -50 l35 3 62 165 c87 228 83 210 48 210 -30 0 -31 -2 -88 -164 l-59
-163 -47 136 c-69 197 -66 191 -99 191 -16 0 -29 -2 -29 -4z"/>
<path d="M13513 1141 c-85 -53 -107 -222 -41 -306 44 -57 146 -80 228 -52 25
9 36 19 38 36 3 21 1 23 -25 17 -67 -15 -129 -17 -152 -4 -32 17 -59 56 -67
96 l-6 32 131 0 131 0 0 40 c0 51 -20 98 -54 130 -37 34 -137 40 -183 11z
m144 -41 c7 0 33 -62 33 -80 0 -19 -6 -20 -93 -20 -52 0 -96 3 -100 6 -9 10
13 60 36 82 27 25 53 31 92 20 16 -4 31 -8 32 -8z"/>
<path d="M14090 1138 c-58 -40 -73 -69 -77 -155 -4 -68 -2 -84 19 -122 28 -52
91 -91 147 -91 51 1 114 32 142 71 21 30 24 45 24 126 0 77 -3 96 -21 120 -38
51 -81 73 -144 73 -43 0 -65 -6 -90 -22z m151 -38 c38 -21 56 -83 51 -178 -3
-51 -58 -102 -109 -102 -73 0 -113 52 -113 145 0 63 19 118 47 134 23 13 99
14 124 1z"/>
<path d="M14460 885 l0 -275 25 0 25 0 0 106 0 105 32 -23 c44 -31 134 -32
175 -2 47 34 68 89 68 174 0 125 -52 190 -153 190 -36 0 -59 -7 -85 -24 l-35
-24 -6 24 c-4 15 -14 24 -26 24 -19 0 -20 -8 -20 -275z m228 202 c44 -47 54
-135 23 -204 -22 -48 -45 -63 -96 -63 -74 0 -116 83 -99 197 10 66 39 93 102
93 38 0 53 -5 70 -23z"/>
<path d="M14949 1137 c-103 -68 -106 -274 -5 -337 45 -27 113 -35 175 -20 45
10 51 15 51 37 0 21 -4 24 -22 20 -105 -26 -167 -15 -199 37 -10 17 -19 43
-19 59 l0 27 131 0 132 0 -6 51 c-7 60 -38 114 -77 134 -44 23 -121 19 -161
-8z m152 -58 c10 -13 19 -35 21 -49 l3 -25 -97 -3 c-110 -3 -117 2 -78 65 33
56 115 62 151 12z"/>
<path d="M15287 1153 c-4 -3 -7 -89 -7 -190 l0 -183 30 0 30 0 0 110 c0 71 5
122 14 144 19 47 61 76 107 76 35 0 39 3 39 25 0 23 -4 25 -44 25 -37 0 -51
-6 -80 -33 l-35 -33 -6 33 c-6 31 -30 45 -48 26z"/>
</g>
</svg>
