<?xml version="1.0" standalone="no"?>
<!DOCTYPE svg PUBLIC "-//W3C//DTD SVG 20010904//EN"
        "http://www.w3.org/TR/2001/REC-SVG-20010904/DTD/svg10.dtd">
<svg version="1.0" xmlns="http://www.w3.org/2000/svg"
     width="200.000000pt" height="200.000000pt" viewBox="0 0 200.000000 200.000000"
     preserveAspectRatio="xMidYMid meet">

    <defs>
        <linearGradient id="gradient" x1="0%" y1="0%" x2="100%" y2="0%">
            <stop offset="0%" style="stop-color:red;stop-opacity:1">
                <animate attributeName="stop-color" values="red;black;red" dur="5s" repeatCount="indefinite" />
            </stop>
            <stop offset="100%" style="stop-color:black;stop-opacity:1">
                <animate attributeName="stop-color" values="black;red;black" dur="5s" repeatCount="indefinite" />
            </stop>
        </linearGradient>
    </defs>

    <g transform="translate(0.000000,200.000000) scale(0.100000,-0.100000)"
       fill="url(#gradient)" stroke="none">
        <path d="M920 1671 l-104 -209 304 -664 c167 -364 304 -664 305 -665 1 -2 111
-6 244 -9 l243 -7 -376 749 c-207 412 -406 809 -444 881 l-68 133 -104 -209z"/>
        <path d="M778 1379 c-14 -24 -51 -98 -83 -164 -32 -66 -167 -340 -302 -608
l-243 -488 101 3 101 3 274 546 274 547 -48 103 -48 103 -26 -45z"/>
        <path d="M621 297 c-13 -16 -81 -164 -81 -178 0 -5 167 -9 430 -9 237 0 430 2
430 4 0 3 -20 48 -44 100 l-45 96 -339 0 c-270 0 -342 -3 -351 -13z"/>
    </g>
</svg>
